<svg width="65" height="88" viewBox="0 0 65 88" fill="none" xmlns="http://www.w3.org/2000/svg">
<path d="M7.83479 0.0019995H16.5148V11.782H23.0868V18.54H16.5148V39H7.83479V18.54H3.61879V11.782H7.83479V0.0019995Z" fill="#97A4C3"/>
<path d="M34.1073 25.112C34.1073 22.3427 34.748 19.8627 36.0293 17.672C37.352 15.4813 39.1913 13.766 41.5473 12.526C43.9033 11.2447 46.6106 10.604 49.6693 10.604C52.7693 10.604 55.456 11.2447 57.7293 12.526C60.0026 13.766 61.7386 15.4813 62.9373 17.672C64.1773 19.8627 64.7973 22.3427 64.7973 25.112C64.7973 27.8813 64.1773 30.382 62.9373 32.614C61.7386 34.8047 60.0026 36.5407 57.7293 37.822C55.456 39.1033 52.728 39.744 49.5453 39.744C46.5693 39.744 43.9033 39.1653 41.5473 38.008C39.2326 36.8507 37.414 35.1767 36.0913 32.986C34.7686 30.7953 34.1073 28.1707 34.1073 25.112ZM42.8493 25.174C42.8493 26.5793 43.1386 27.8607 43.7173 29.018C44.296 30.134 45.0813 31.0227 46.0733 31.684C47.0653 32.3453 48.1813 32.676 49.4213 32.676C50.7853 32.676 51.9633 32.3453 52.9553 31.684C53.9473 31.0227 54.712 30.134 55.2493 29.018C55.7866 27.8607 56.0553 26.5793 56.0553 25.174C56.0553 23.7273 55.7866 22.446 55.2493 21.33C54.712 20.214 53.9473 19.3253 52.9553 18.664C51.9633 18.0027 50.7853 17.672 49.4213 17.672C48.1813 17.672 47.0653 18.0027 46.0733 18.664C45.0813 19.3253 44.296 20.214 43.7173 21.33C43.1386 22.446 42.8493 23.7273 42.8493 25.174Z" fill="#FFA167"/>
<path d="M6.94814 87.02L24.9901 46.906H32.8021L15.3181 87.02H6.94814ZM14.2021 74.124L0.93414 46.906H10.6681L20.8981 69.784L14.2021 74.124Z" fill="#8B9510"/>
<path d="M53.2234 74.558C50.9914 74.558 48.9041 74.1653 46.9614 73.38C45.0601 72.5947 43.4481 71.4993 42.1254 70.094L45.7214 65.32C47.0441 66.5187 48.2634 67.3867 49.3794 67.924C50.5367 68.42 51.5701 68.668 52.4794 68.668C53.1821 68.668 53.8021 68.606 54.3394 68.482C54.9181 68.3167 55.3727 68.0893 55.7034 67.8C56.0341 67.4693 56.1994 67.056 56.1994 66.56C56.1994 65.8573 55.9101 65.2993 55.3314 64.886C54.7941 64.4727 54.0914 64.142 53.2234 63.894C52.3554 63.6047 51.4254 63.3153 50.4334 63.026C47.9534 62.2407 46.1554 61.104 45.0394 59.616C43.9647 58.0867 43.4274 56.4333 43.4274 54.656C43.4274 53.292 43.7787 51.928 44.4814 50.564C45.2254 49.1587 46.3827 48.0013 47.9534 47.092C49.5654 46.1413 51.6321 45.666 54.1534 45.666C56.4267 45.666 58.3487 45.8933 59.9194 46.348C61.4901 46.8027 62.9781 47.5467 64.3834 48.58L61.0974 53.664C60.3121 53.044 59.4234 52.5273 58.4314 52.114C57.4807 51.6593 56.5921 51.4113 55.7654 51.37C55.0214 51.3287 54.3807 51.4113 53.8434 51.618C53.3474 51.8247 52.9547 52.0933 52.6654 52.424C52.3761 52.7547 52.2314 53.106 52.2314 53.478C52.1901 54.2633 52.4794 54.8833 53.0994 55.338C53.7607 55.7927 54.5874 56.144 55.5794 56.392C56.5714 56.64 57.5427 56.9293 58.4934 57.26C59.8161 57.6733 60.9527 58.2313 61.9034 58.934C62.8541 59.6367 63.5774 60.484 64.0734 61.476C64.6107 62.4267 64.8794 63.584 64.8794 64.948C64.8794 66.6013 64.4454 68.172 63.5774 69.66C62.7507 71.1067 61.4694 72.2847 59.7334 73.194C58.0387 74.1033 55.8687 74.558 53.2234 74.558Z" fill="#CE6A52"/>
</svg>
